<?xml version="1.0" encoding="utf-8"?>
<!-- Generator: Adobe Illustrator 16.0.3, SVG Export Plug-In . SVG Version: 6.00 Build 0)  -->
<!DOCTYPE svg PUBLIC "-//W3C//DTD SVG 1.1//EN" "http://www.w3.org/Graphics/SVG/1.1/DTD/svg11.dtd">
<svg version="1.1" xmlns="http://www.w3.org/2000/svg" xmlns:xlink="http://www.w3.org/1999/xlink" x="0px" y="0px" width="32px"
	 height="32px" viewBox="0 0 32 32" enable-background="new 0 0 32 32" xml:space="preserve">
<g id="Layer_1">
	<g>
		<path fill-rule="evenodd" clip-rule="evenodd" fill="#FFFFFF" d="M21.022,31.155c0.615-0.245,1.239-0.473,1.846-0.738
			c0.781-0.341,1.549-0.712,2.337-1.077c-0.021,0.129-0.043,0.262-0.063,0.395c0.028,0.008,0.058,0.016,0.088,0.024
			c0.052-0.234,0.132-0.466,0.147-0.703c0.014-0.2-0.139-0.252-0.31-0.17c-0.259,0.125-0.513,0.262-0.766,0.399
			c-1.135,0.618-2.254,1.268-3.493,1.664c-0.546,0.174-1.116,0.258-1.672,0.09c-0.248-0.074-0.512-0.247-0.664-0.453
			c-0.312-0.421-0.573-0.882-0.813-1.349c-0.188-0.363-0.136-0.454,0.208-0.681c2.762-1.826,4.974-4.142,6.414-7.153
			c0.827-1.728,1.282-3.562,1.585-5.441c0.06-0.37,0.083-0.768,0.399-1.03c0.108-0.09,0.294-0.17,0.42-0.143
			c0.838,0.184,1.642,0.465,2.369,0.935c0.524,0.338,0.914,0.783,1.114,1.381c0,0.22,0,0.439,0,0.658
			c-0.395,0.841-1.071,1.487-1.634,1.583c0.147-0.603,0.321-1.212,0.438-1.833c0.125-0.654,0.063-0.629,0.647-0.337
			c0.012,0.006,0.033-0.006,0.084-0.019c-0.167-0.188-0.314-0.375-0.482-0.541c-0.278-0.272-0.433-0.231-0.526,0.151
			c-0.101,0.415-0.173,0.835-0.259,1.254c-0.328,1.609-0.734,3.193-1.408,4.699c-1.14,2.544-2.939,4.547-5.123,6.231
			c-0.568,0.438-1.159,0.849-1.739,1.271c0.944-0.46,1.904-0.889,2.693-1.608c0.5-0.456,1.017-0.893,1.529-1.333
			c0.165-0.141,0.345-0.165,0.552-0.058c0.759,0.395,1.251,1.529,1.016,2.343c-0.087,0.301-0.248,0.504-0.565,0.586
			c-0.653,0.169-1.299,0.366-1.955,0.525c-0.721,0.175-1.45,0.32-2.175,0.478C21.18,31.155,21.101,31.155,21.022,31.155z"/>
		<path fill-rule="evenodd" clip-rule="evenodd" fill="#FFFFFF" d="M1.832,17.226c0.316-1.194,1.281-1.677,2.304-2.086
			c0.321-0.129,0.66-0.215,0.994-0.309c0.455-0.126,0.729,0.007,0.872,0.454c0.094,0.292,0.145,0.599,0.194,0.901
			c0.338,2.062,0.899,4.049,1.896,5.898c1.436,2.665,3.493,4.747,5.996,6.412c0.423,0.281,0.475,0.375,0.236,0.817
			c-0.259,0.48-0.548,0.949-0.867,1.39c-0.231,0.319-0.618,0.375-0.993,0.395c-0.725,0.039-1.405-0.154-2.044-0.464
			c-0.975-0.473-1.932-0.982-2.896-1.477c-0.07-0.037-0.136-0.088-0.21-0.112c-0.198-0.066-0.399-0.121-0.6-0.18
			c0.014,0.248,0.022,0.496,0.045,0.743c0.004,0.05,0.057,0.096,0.136,0.217c-0.032-0.225-0.052-0.363-0.067-0.47
			c1.081,0.474,2.16,0.949,3.241,1.417c0.318,0.138,0.646,0.255,0.968,0.382c-0.06,0-0.119,0-0.179,0
			c-0.376-0.08-0.754-0.15-1.127-0.242c-1.03-0.252-2.059-0.517-3.089-0.773c-0.298-0.074-0.474-0.255-0.564-0.55
			c-0.257-0.834,0.21-1.986,0.998-2.362c0.141-0.066,0.385-0.053,0.517,0.027c0.303,0.185,0.575,0.425,0.844,0.661
			c0.381,0.334,0.714,0.736,1.129,1.017c0.632,0.429,1.316,0.779,1.979,1.161c0.074,0.043,0.158,0.07,0.236,0.105
			c-0.518-0.425-1.057-0.798-1.577-1.196C8.081,27.38,6.305,25.46,5.14,23.024c-0.777-1.626-1.218-3.354-1.576-5.109
			c-0.084-0.409-0.155-0.82-0.257-1.224c-0.074-0.292-0.228-0.335-0.449-0.133c-0.186,0.17-0.344,0.37-0.516,0.557
			c0.012,0.015,0.024,0.03,0.037,0.046c0.175-0.07,0.352-0.139,0.523-0.207c0.204,0.832,0.398,1.624,0.599,2.437
			c-0.79-0.391-1.456-0.885-1.67-1.806C1.832,17.464,1.832,17.345,1.832,17.226z"/>
		<path fill-rule="evenodd" clip-rule="evenodd" fill="#FFFFFF" d="M16.239,0.845c0.788,0.306,1.389,0.873,1.993,1.435
			c0.372,0.346,0.734,0.702,1.122,1.029c0.4,0.339,0.626,0.341,0.976-0.05c0.625-0.698,1.88-0.728,2.545,0.129
			c0.08,0.102,0.161,0.203,0.239,0.306c0.186,0.246,0.343,0.519,0.561,0.733c0.209,0.206,0.478,0.349,0.736,0.53
			c-2.724-0.761-5.496-1.227-8.305-1.237c-2.809-0.011-5.578,0.459-8.311,1.165c0.179-0.12,0.375-0.222,0.531-0.367
			C8.5,4.357,8.637,4.158,8.784,3.97c0.141-0.18,0.272-0.367,0.409-0.551c0.667-0.896,1.949-0.869,2.584-0.144
			c0.319,0.366,0.558,0.371,0.929,0.055c0.455-0.387,0.883-0.805,1.323-1.208c0.558-0.511,1.117-1.021,1.852-1.277
			C16,0.845,16.119,0.845,16.239,0.845z"/>
		<path fill-rule="evenodd" clip-rule="evenodd" fill="#FFFFFF" d="M5.904,5.424c-0.997,0.549-2.26,1.134-3.117,0.934
			c0.195,0.177,0.605,0.294,0.952,0.2c0.595-0.16,1.18-0.352,1.763-0.546c2.296-0.763,4.635-1.344,7.04-1.632
			c2.123-0.255,4.251-0.269,6.378-0.055c2.97,0.301,5.841,1.036,8.644,2.051c0.497,0.18,0.992,0.295,1.511,0.101
			c0.046-0.017,0.091-0.036,0.135-0.06c0.015-0.008,0.021-0.031,0.036-0.055c-1.184,0.177-2.129-0.479-3.157-0.84
			c0.006-0.032,0.012-0.065,0.017-0.098c0.495,0.049,0.993,0.078,1.485,0.153c0.617,0.093,1.233,0.207,1.842,0.345
			c0.382,0.086,0.434,0.211,0.389,0.606c-0.069,0.602-0.271,1.138-0.736,1.552c-0.484,0.428-0.968,0.857-1.447,1.291
			c-0.242,0.22-0.489,0.223-0.796,0.123c-1.253-0.412-2.504-0.842-3.778-1.183c-2.287-0.613-4.635-0.879-6.995-0.871
			c-3.36,0.013-6.649,0.548-9.829,1.676C5.835,9.259,5.436,9.412,5.024,9.521c-0.15,0.04-0.382,0.024-0.489-0.068
			C3.887,8.896,3.242,8.333,2.644,7.725c-0.369-0.375-0.425-0.907-0.45-1.419C2.181,6.062,2.367,5.972,2.552,5.933
			c0.622-0.13,1.245-0.258,1.872-0.355C4.914,5.502,5.411,5.473,5.904,5.424z"/>
		<path fill-rule="evenodd" clip-rule="evenodd" fill="#FFFFFF" d="M6.368,12.311c0.041-0.814,0.085-1.629,0.124-2.444
			c0.01-0.199,0.083-0.32,0.286-0.393c1.614-0.579,3.271-0.999,4.97-1.207c1.291-0.158,2.594-0.294,3.891-0.309
			c3.192-0.038,6.324,0.383,9.354,1.434c0.524,0.182,0.557,0.177,0.563,0.744c0.019,1.453,0.134,2.918-0.017,4.354
			c-0.669,6.406-3.727,11.333-9.301,14.644c-0.155,0.092-0.267,0.101-0.428,0.007c-4.361-2.545-7.276-6.223-8.679-11.083
			C6.59,16.182,6.354,14.264,6.368,12.311z M24.731,12.396c-0.039-0.626-0.085-1.251-0.111-1.878
			c-0.008-0.182-0.085-0.256-0.246-0.316c-1.442-0.531-2.932-0.886-4.449-1.095c-2.136-0.293-4.281-0.369-6.434-0.14
			c-1.896,0.202-3.747,0.583-5.55,1.21c-0.214,0.074-0.301,0.195-0.305,0.41c-0.021,0.872-0.044,1.745-0.069,2.617
			c-0.035,1.152,0.112,2.285,0.362,3.405c1.038,4.636,3.419,8.377,7.381,11.063c0.787,0.533,0.798,0.541,1.574-0.005
			C22.175,23.954,24.538,18.735,24.731,12.396z"/>
		<path fill-rule="evenodd" clip-rule="evenodd" fill="#FFFFFF" d="M15.632,19.782c-0.921,1.395-1.839,2.789-2.771,4.203
			c-0.536-0.691-1.053-1.358-1.585-2.044c-0.178,0.129-0.343,0.25-0.566,0.414c-0.371-0.701-0.735-1.387-1.114-2.104
			c0.23-0.093,0.412-0.167,0.632-0.256c-0.345-0.905-0.686-1.8-1.036-2.721c-0.182,0.062-0.349,0.117-0.572,0.192
			c-0.15-0.689-0.301-1.371-0.46-2.095c0.21-0.031,0.389-0.057,0.595-0.087c-0.066-0.957-0.132-1.906-0.198-2.875
			c-0.178,0-0.341,0-0.553,0c0.036-0.553,0.067-1.085,0.109-1.618c0.004-0.054,0.061-0.133,0.109-0.151
			c0.437-0.157,0.876-0.302,1.329-0.455c0.054,0.204,0.093,0.355,0.144,0.549c0.945-0.205,1.882-0.409,2.845-0.618
			c-0.026-0.18-0.05-0.342-0.081-0.551c0.721-0.08,1.427-0.158,2.173-0.241c0,0.218,0,0.401,0,0.605c0.994,0,1.953,0,2.931,0
			c0.009-0.197,0.017-0.382,0.026-0.602c0.737,0.077,1.445,0.152,2.171,0.228c-0.04,0.203-0.071,0.355-0.111,0.547
			c0.943,0.208,1.88,0.416,2.846,0.629c0.054-0.191,0.104-0.367,0.162-0.575c0.468,0.154,0.922,0.295,1.366,0.458
			c0.08,0.029,0.174,0.144,0.182,0.228c0.051,0.513,0.078,1.027,0.116,1.576c-0.241-0.011-0.443-0.02-0.681-0.031
			c-0.068,0.979-0.135,1.936-0.2,2.906c0.225,0.026,0.418,0.048,0.662,0.075c-0.173,0.717-0.339,1.407-0.509,2.115
			c-0.211-0.076-0.378-0.136-0.584-0.212c-0.345,0.902-0.687,1.797-1.039,2.721c0.193,0.085,0.379,0.167,0.611,0.268
			c-0.368,0.703-0.727,1.386-1.099,2.096c-0.207-0.151-0.374-0.272-0.558-0.405c-0.533,0.691-1.063,1.375-1.605,2.079
			c-0.063-0.085-0.116-0.151-0.164-0.223c-0.833-1.263-1.661-2.529-2.501-3.787c-0.118-0.176-0.121-0.295-0.003-0.473
			c0.828-1.243,1.642-2.494,2.464-3.74c0.057-0.086,0.14-0.193,0.228-0.214c0.649-0.159,0.837-0.644,0.9-1.225
			c0.007-0.056,0.007-0.113,0.016-0.258c0.215,0.421,0.393,0.769,0.615,1.204c0.277-1.534,0.539-2.979,0.813-4.5
			c-1.143,0.989-2.231,1.931-3.376,2.922c0.397,0,0.727,0,1.103,0c-0.052,0.061-0.063,0.088-0.082,0.096
			c-0.578,0.218-0.773,0.668-0.776,1.248c0,0.131-0.02,0.284-0.088,0.39c-0.764,1.177-1.539,2.347-2.312,3.518
			c-0.021,0.032-0.048,0.059-0.077,0.094c-0.03-0.023-0.06-0.036-0.073-0.058c-0.785-1.188-1.568-2.375-2.349-3.566
			c-0.046-0.07-0.085-0.165-0.081-0.244c0.033-0.643-0.146-1.16-0.799-1.445c0.32,0,0.64,0,0.96,0
			c0.013-0.025,0.025-0.049,0.037-0.074c-1.086-0.942-2.174-1.884-3.323-2.881c0.273,1.526,0.533,2.967,0.81,4.502
			c0.214-0.42,0.388-0.758,0.581-1.139c0.055,0.245,0.089,0.451,0.146,0.649c0.109,0.381,0.346,0.639,0.741,0.743
			c0.088,0.023,0.189,0.083,0.237,0.156C13.855,17.07,14.738,18.418,15.632,19.782z"/>
		<path fill-rule="evenodd" clip-rule="evenodd" fill="#FFFFFF" d="M16.068,20.443c1.063,1.631,2.097,3.218,3.136,4.815
			c-0.746,0.772-1.543,1.445-2.429,2.004c-0.821,0.519-0.489,0.515-1.301-0.004c-0.906-0.581-1.73-1.268-2.503-2.061
			C13.996,23.624,15.014,22.061,16.068,20.443z M14.637,24.882c0.451,0.343,0.889,0.682,1.336,1.007
			c0.051,0.038,0.181,0.034,0.233-0.005c0.382-0.285,0.759-0.576,1.122-0.885c0.055-0.046,0.069-0.22,0.027-0.289
			c-0.287-0.475-0.596-0.939-0.898-1.406c-0.126-0.197-0.255-0.391-0.402-0.614C15.577,23.43,15.125,24.127,14.637,24.882z"/>
	</g>
</g>
<g id="Layer_2">
</g>
</svg>
