<?xml version="1.0" encoding="utf-8"?>
<!-- Generator: Adobe Illustrator 23.0.2, SVG Export Plug-In . SVG Version: 6.00 Build 0)  -->
<svg version="1.1" xmlns="http://www.w3.org/2000/svg" xmlns:xlink="http://www.w3.org/1999/xlink" x="0px" y="0px" width="32px"
	 height="13px" viewBox="0 0 32 13" enable-background="new 0 0 32 13" xml:space="preserve">
<g id="Layer_4">
</g>
<g id="Layer_1">
	<path opacity="0.55" fill="#606161" d="M16.466,2.695c-2.441,0-4.429,1.987-4.429,4.429s1.987,4.429,4.429,4.429
		c2.441,0,4.429-1.987,4.429-4.429S18.907,2.695,16.466,2.695z M16.466,10.641c-1.939,0-3.517-1.578-3.517-3.518
		c0-1.939,1.577-3.518,3.517-3.518c1.941,0,3.519,1.578,3.519,3.518C19.984,9.063,18.406,10.641,16.466,10.641z M16.932,7.398
		l-1.609,1.878l-0.634-0.543l1.408-1.647V4.21h0.835V7.398z"/>
	<linearGradient id="SVGID_1_" gradientUnits="userSpaceOnUse" x1="18.2918" y1="12.8877" x2="14.1037" y2="1.2144">
		<stop  offset="0.0541" style="stop-color:#807776"/>
		<stop  offset="0.0743" style="stop-color:#8C8483"/>
		<stop  offset="0.1263" style="stop-color:#A5A0A0"/>
		<stop  offset="0.1758" style="stop-color:#B9B6B7"/>
		<stop  offset="0.2215" style="stop-color:#C5C5C7"/>
		<stop  offset="0.2598" style="stop-color:#C9CBCD"/>
		<stop  offset="0.2877" style="stop-color:#C4C6C8"/>
		<stop  offset="0.3231" style="stop-color:#B5B9BC"/>
		<stop  offset="0.3623" style="stop-color:#9FA3A7"/>
		<stop  offset="0.4041" style="stop-color:#82888C"/>
		<stop  offset="0.433" style="stop-color:#6C7176"/>
		<stop  offset="0.7402" style="stop-color:#BECAD1"/>
		<stop  offset="0.8799" style="stop-color:#85A3B2"/>
		<stop  offset="1" style="stop-color:#5D5E60"/>
	</linearGradient>
	<path fill="url(#SVGID_1_)" d="M16,2.071c-2.441,0-4.429,1.987-4.429,4.429s1.987,4.429,4.429,4.429
		c2.441,0,4.429-1.987,4.429-4.429S18.441,2.071,16,2.071z M16,10.018c-1.939,0-3.517-1.578-3.517-3.518
		c0-1.939,1.577-3.517,3.517-3.517c1.941,0,3.519,1.578,3.519,3.517C19.519,8.439,17.94,10.018,16,10.018z M16.466,6.774
		l-1.609,1.878l-0.634-0.543l1.408-1.647V3.586h0.835V6.774z"/>
	<linearGradient id="SVGID_2_" gradientUnits="userSpaceOnUse" x1="16.8817" y1="13.4499" x2="15.1183" y2="-0.4499">
		<stop  offset="0.0541" style="stop-color:#807776"/>
		<stop  offset="0.0743" style="stop-color:#8C8483"/>
		<stop  offset="0.1263" style="stop-color:#A5A0A0"/>
		<stop  offset="0.1758" style="stop-color:#B9B6B7"/>
		<stop  offset="0.2215" style="stop-color:#C5C5C7"/>
		<stop  offset="0.2598" style="stop-color:#C9CBCD"/>
		<stop  offset="0.2877" style="stop-color:#C4C6C8"/>
		<stop  offset="0.3231" style="stop-color:#B5B9BC"/>
		<stop  offset="0.3623" style="stop-color:#9FA3A7"/>
		<stop  offset="0.4041" style="stop-color:#82888C"/>
		<stop  offset="0.433" style="stop-color:#6C7176"/>
		<stop  offset="0.7402" style="stop-color:#BECAD1"/>
		<stop  offset="0.8799" style="stop-color:#85A3B2"/>
		<stop  offset="1" style="stop-color:#5D5E60"/>
	</linearGradient>
	<path fill="url(#SVGID_2_)" d="M28.747,1.055H3.253L0.106,6.5l3.148,5.445h25.493L31.894,6.5L28.747,1.055z M28.141,11.165H3.859
		L1.167,6.5l2.692-4.665h24.282L30.833,6.5L28.141,11.165z"/>
</g>
<g id="Layer_3" display="none">
</g>
<g id="guides" display="none">
</g>
</svg>
