<?xml version="1.0" encoding="utf-8"?>
<!-- Generator: Adobe Illustrator 23.0.2, SVG Export Plug-In . SVG Version: 6.00 Build 0)  -->
<svg version="1.1" xmlns="http://www.w3.org/2000/svg" xmlns:xlink="http://www.w3.org/1999/xlink" x="0px" y="0px" width="32px"
	 height="13px" viewBox="0 0 32 13" enable-background="new 0 0 32 13" xml:space="preserve">
<g id="Layer_4">
</g>
<g id="Layer_1">
	<g>
		<g opacity="0.54">
			<rect x="15.464" y="9.291" width="1.561" height="1.596"/>
			<path d="M18.416,3.306c-0.248-0.244-0.547-0.366-0.899-0.366h-2.053c-0.344,0-0.639,0.122-0.883,0.366
				c-0.244,0.244-0.365,0.542-0.365,0.894v0.936h1.381V4.513c0-0.088,0.031-0.162,0.096-0.222C15.755,4.231,15.831,4.2,15.919,4.2
				h1.165c0.088,0,0.164,0.03,0.229,0.091c0.065,0.06,0.096,0.134,0.096,0.222v0.623v0.541c0,0.152-0.092,0.28-0.276,0.384
				c-0.111,0.056-0.272,0.138-0.481,0.246c-0.207,0.108-0.344,0.178-0.408,0.21c-0.287,0.152-0.479,0.3-0.576,0.444
				c-0.096,0.144-0.143,0.359-0.143,0.648v0.184h0.06v0.423h1.368V7.791c0.044-0.072,0.11-0.141,0.215-0.205
				c0.057-0.032,0.133-0.076,0.229-0.133c0.096-0.056,0.209-0.117,0.336-0.186c0.129-0.067,0.225-0.122,0.289-0.162
				c0.191-0.111,0.328-0.196,0.406-0.252c0.08-0.056,0.16-0.151,0.24-0.288c0.08-0.136,0.121-0.304,0.121-0.504V5.136V4.2
				C18.789,3.849,18.664,3.551,18.416,3.306z"/>
		</g>
		<g>
			<linearGradient id="SVGID_1_" gradientUnits="userSpaceOnUse" x1="17.1112" y1="10.5341" x2="15.5963" y2="1.8237">
				<stop  offset="0.0541" style="stop-color:#807776"/>
				<stop  offset="0.0743" style="stop-color:#8C8483"/>
				<stop  offset="0.1263" style="stop-color:#A5A0A0"/>
				<stop  offset="0.1758" style="stop-color:#B9B6B7"/>
				<stop  offset="0.2215" style="stop-color:#C5C5C7"/>
				<stop  offset="0.2598" style="stop-color:#C9CBCD"/>
				<stop  offset="0.2877" style="stop-color:#C4C6C8"/>
				<stop  offset="0.3231" style="stop-color:#B5B9BC"/>
				<stop  offset="0.3623" style="stop-color:#9FA3A7"/>
				<stop  offset="0.4041" style="stop-color:#82888C"/>
				<stop  offset="0.433" style="stop-color:#6C7176"/>
				<stop  offset="0.7402" style="stop-color:#BECAD1"/>
				<stop  offset="0.8799" style="stop-color:#85A3B2"/>
				<stop  offset="1" style="stop-color:#5D5E60"/>
			</linearGradient>
			<path fill="url(#SVGID_1_)" d="M16.4,8.017h-1.405V7.191c0-0.296,0.048-0.518,0.147-0.665c0.1-0.148,0.297-0.3,0.592-0.457
				c0.066-0.033,0.206-0.105,0.419-0.216c0.215-0.111,0.38-0.195,0.494-0.253c0.189-0.106,0.282-0.237,0.282-0.394V4.009
				c0-0.09-0.032-0.166-0.098-0.228c-0.066-0.063-0.145-0.094-0.235-0.094h-1.196c-0.091,0-0.169,0.031-0.233,0.094
				c-0.065,0.062-0.098,0.138-0.098,0.228v0.716h-1.42V3.687c0-0.361,0.124-0.667,0.375-0.918c0.251-0.25,0.554-0.376,0.908-0.376
				h2.109c0.362,0,0.669,0.126,0.924,0.376c0.254,0.251,0.383,0.558,0.383,0.918v1.912c0,0.206-0.042,0.379-0.124,0.519
				c-0.083,0.14-0.165,0.238-0.247,0.296c-0.08,0.057-0.221,0.145-0.417,0.259c-0.066,0.041-0.165,0.097-0.298,0.166
				c-0.13,0.07-0.246,0.134-0.345,0.19c-0.099,0.059-0.177,0.104-0.234,0.137C16.494,7.281,16.4,7.409,16.4,7.549V8.017z
				 M16.537,10.607h-1.604V8.918h1.604V10.607z"/>
		</g>
	</g>
	<linearGradient id="SVGID_2_" gradientUnits="userSpaceOnUse" x1="16.8817" y1="13.4499" x2="15.1183" y2="-0.4499">
		<stop  offset="0.0541" style="stop-color:#807776"/>
		<stop  offset="0.0743" style="stop-color:#8C8483"/>
		<stop  offset="0.1263" style="stop-color:#A5A0A0"/>
		<stop  offset="0.1758" style="stop-color:#B9B6B7"/>
		<stop  offset="0.2215" style="stop-color:#C5C5C7"/>
		<stop  offset="0.2598" style="stop-color:#C9CBCD"/>
		<stop  offset="0.2877" style="stop-color:#C4C6C8"/>
		<stop  offset="0.3231" style="stop-color:#B5B9BC"/>
		<stop  offset="0.3623" style="stop-color:#9FA3A7"/>
		<stop  offset="0.4041" style="stop-color:#82888C"/>
		<stop  offset="0.433" style="stop-color:#6C7176"/>
		<stop  offset="0.7402" style="stop-color:#BECAD1"/>
		<stop  offset="0.8799" style="stop-color:#85A3B2"/>
		<stop  offset="1" style="stop-color:#5D5E60"/>
	</linearGradient>
	<path fill="url(#SVGID_2_)" d="M28.747,1.055H3.253L0.106,6.5l3.148,5.445h25.493L31.894,6.5L28.747,1.055z M28.141,11.165H3.859
		L1.167,6.5l2.692-4.665h24.282L30.833,6.5L28.141,11.165z"/>
</g>
<g id="Layer_3" display="none">
</g>
<g id="guides" display="none">
</g>
</svg>
