<?xml version="1.0" encoding="utf-8"?>
<!-- Generator: Adobe Illustrator 16.0.0, SVG Export Plug-In . SVG Version: 6.00 Build 0)  -->
<!DOCTYPE svg PUBLIC "-//W3C//DTD SVG 1.1//EN" "http://www.w3.org/Graphics/SVG/1.1/DTD/svg11.dtd">
<svg version="1.1" id="Layer_1" xmlns="http://www.w3.org/2000/svg" xmlns:xlink="http://www.w3.org/1999/xlink" x="0px" y="0px"
	 width="32px" height="13px" viewBox="0 0 32 13" enable-background="new 0 0 32 13" xml:space="preserve">
<g>
	<linearGradient id="SVGID_1_" gradientUnits="userSpaceOnUse" x1="-3.0381" y1="-0.6826" x2="42.4632" y2="16.1303">
		<stop  offset="0" style="stop-color:#414042"/>
		<stop  offset="1" style="stop-color:#29292A"/>
	</linearGradient>
	<path fill="url(#SVGID_1_)" d="M30.475,0.281h-3.842h-1.055h-1.574h-3.68h-0.68h-8.289H5.018H2.492H1.416
		c-0.119,0-0.229,0.028-0.334,0.067C1.059,0.357,1.037,0.365,1.014,0.376C0.916,0.422,0.826,0.48,0.75,0.555
		C0.738,0.566,0.73,0.579,0.719,0.591C0.682,0.63,0.645,0.668,0.615,0.713C0.594,0.746,0.582,0.785,0.564,0.82
		C0.551,0.849,0.535,0.875,0.525,0.905C0.484,1.012,0.457,1.123,0.457,1.244v0.213v0.127v2.094v1.127v1.307v5.338
		c0,0.125,0.027,0.24,0.07,0.35c0.014,0.037,0.039,0.068,0.057,0.104c0.027,0.05,0.049,0.104,0.084,0.148
		c0.01,0.013,0.025,0.018,0.037,0.029c0.061,0.07,0.135,0.123,0.215,0.173c0.033,0.021,0.061,0.049,0.096,0.065
		c0.123,0.057,0.256,0.094,0.4,0.094h1.297h3.969h2.135l0.076,0.053c-0.01-0.019-0.021-0.034-0.029-0.053h5.553h4.799h1.58H21.1
		h3.223h0.787h0.979h2.426h0.461h1.5c0.053,0,0.105-0.006,0.156-0.018c0.041-0.008,0.078-0.034,0.119-0.049
		c0.061-0.02,0.117-0.038,0.174-0.069c0.066-0.035,0.121-0.08,0.18-0.128c0.047-0.039,0.094-0.072,0.135-0.118
		c0.014-0.014,0.031-0.023,0.045-0.038c0.043-0.052,0.068-0.112,0.102-0.169c0.025-0.04,0.055-0.076,0.072-0.118
		c0.053-0.119,0.088-0.242,0.088-0.367V9.729V8.857V8.324V4.387V2.875V2.502V1.133C31.545,0.602,31.004,0.281,30.475,0.281z"/>
	<linearGradient id="SVGID_2_" gradientUnits="userSpaceOnUse" x1="26.291" y1="12.4131" x2="3.1042" y2="-0.899">
		<stop  offset="0" style="stop-color:#565759"/>
		<stop  offset="0.5" style="stop-color:#666669"/>
		<stop  offset="1" style="stop-color:#77787B"/>
	</linearGradient>
	<path fill="url(#SVGID_2_)" d="M30.631,0.16H1.26c-0.664,0-1.203,0.543-1.203,1.207v10.268c0,0.666,0.539,1.205,1.203,1.205h29.371
		c0.662,0,1.313-0.652,1.313-1.318V1.256C31.943,0.57,31.275,0.16,30.631,0.16z M30.631,12.246H1.26
		c-0.336,0-0.607-0.275-0.607-0.611V1.367c0-0.336,0.271-0.609,0.607-0.609h29.371c0.352,0,0.717,0.186,0.717,0.498v10.266
		C31.348,11.859,30.965,12.246,30.631,12.246z"/>
	<g>
		<linearGradient id="SVGID_3_" gradientUnits="userSpaceOnUse" x1="20.7305" y1="9.5322" x2="11.461" y2="3.4704">
			<stop  offset="0" style="stop-color:#565759"/>
			<stop  offset="0.5" style="stop-color:#666669"/>
			<stop  offset="1" style="stop-color:#77787B"/>
		</linearGradient>
		<path fill="url(#SVGID_3_)" d="M16,2.01c-2.441,0-4.429,1.987-4.429,4.429s1.987,4.429,4.429,4.429s4.429-1.987,4.429-4.429
			S18.441,2.01,16,2.01z M16,9.956c-1.939,0-3.517-1.578-3.517-3.518S14.061,2.921,16,2.921c1.94,0,3.519,1.578,3.519,3.518
			S17.94,9.956,16,9.956z"/>
		<linearGradient id="SVGID_4_" gradientUnits="userSpaceOnUse" x1="20.0166" y1="8.9063" x2="12.1641" y2="3.7711">
			<stop  offset="0" style="stop-color:#565759"/>
			<stop  offset="0.5" style="stop-color:#666669"/>
			<stop  offset="1" style="stop-color:#77787B"/>
		</linearGradient>
		<polygon fill="url(#SVGID_4_)" points="16.466,3.524 15.631,3.524 15.631,6.4 14.223,8.048 14.856,8.591 16.466,6.713 		"/>
	</g>
</g>
</svg>
