<?xml version="1.0" encoding="utf-8"?>
<!-- Generator: Adobe Illustrator 16.0.0, SVG Export Plug-In . SVG Version: 6.00 Build 0)  -->
<!DOCTYPE svg PUBLIC "-//W3C//DTD SVG 1.1//EN" "http://www.w3.org/Graphics/SVG/1.1/DTD/svg11.dtd">
<svg version="1.1" id="Layer_1" xmlns="http://www.w3.org/2000/svg" xmlns:xlink="http://www.w3.org/1999/xlink" x="0px" y="0px"
	 width="32px" height="13px" viewBox="0 0 32 13" enable-background="new 0 0 32 13" xml:space="preserve">
<g>
	<linearGradient id="SVGID_1_" gradientUnits="userSpaceOnUse" x1="2.499" y1="0.1851" x2="34.4989" y2="15.268">
		<stop  offset="0" style="stop-color:#414042"/>
		<stop  offset="1" style="stop-color:#29292A"/>
	</linearGradient>
	<path fill="url(#SVGID_1_)" d="M30.536,0.509h-3.842H25.64h-1.574h-3.68h-0.68h-8.289H5.079H2.554H1.478
		c-0.118,0-0.229,0.028-0.333,0.067C1.121,0.585,1.099,0.593,1.076,0.604C0.978,0.65,0.888,0.708,0.812,0.783
		C0.8,0.794,0.792,0.807,0.781,0.819C0.744,0.858,0.706,0.896,0.677,0.941C0.655,0.974,0.644,1.013,0.626,1.048
		C0.612,1.077,0.598,1.103,0.587,1.133C0.547,1.24,0.519,1.351,0.519,1.472v0.213v0.127v2.094v1.127v1.307v5.338
		c0,0.125,0.027,0.24,0.07,0.35c0.015,0.037,0.039,0.068,0.058,0.104c0.027,0.05,0.048,0.104,0.083,0.148
		c0.01,0.013,0.026,0.018,0.037,0.029c0.062,0.07,0.136,0.123,0.215,0.173c0.033,0.021,0.061,0.049,0.097,0.065
		C1.2,12.603,1.334,12.64,1.478,12.64h1.297h3.969h2.136l0.075,0.053c-0.01-0.019-0.021-0.034-0.029-0.053h5.553h4.799h1.58h0.305
		h3.223h0.787h0.979h2.426h0.461h1.5c0.053,0,0.105-0.006,0.156-0.018c0.042-0.008,0.079-0.034,0.12-0.049
		c0.061-0.02,0.117-0.038,0.174-0.069c0.065-0.035,0.121-0.08,0.18-0.128c0.047-0.039,0.093-0.072,0.135-0.118
		c0.013-0.014,0.031-0.023,0.044-0.038c0.043-0.052,0.069-0.112,0.103-0.169c0.024-0.04,0.054-0.076,0.072-0.118
		c0.053-0.119,0.087-0.242,0.087-0.367V9.957V9.085V8.552V4.615V3.103V2.73V1.361C31.606,0.83,31.065,0.509,30.536,0.509z"/>
	<linearGradient id="SVGID_2_" gradientUnits="userSpaceOnUse" x1="27.8203" y1="13.3125" x2="6.8203" y2="1.5625">
		<stop  offset="0" style="stop-color:#565759"/>
		<stop  offset="0.5" style="stop-color:#666669"/>
		<stop  offset="1" style="stop-color:#77787B"/>
	</linearGradient>
	<path fill="url(#SVGID_2_)" d="M30.693,0.388H1.322c-0.664,0-1.203,0.543-1.203,1.207v10.268c0,0.666,0.539,1.205,1.203,1.205
		h29.371c0.662,0,1.313-0.652,1.313-1.318V1.484C32.006,0.798,31.338,0.388,30.693,0.388z M30.693,12.474H1.322
		c-0.336,0-0.607-0.275-0.607-0.611V1.595c0-0.336,0.271-0.609,0.607-0.609h29.371c0.352,0,0.717,0.186,0.717,0.498V11.75
		C31.41,12.087,31.027,12.474,30.693,12.474z"/>
	<g>
		<path d="M16.735,8.439h-1.367V7.634c0-0.288,0.047-0.504,0.143-0.647c0.098-0.145,0.289-0.292,0.576-0.444
			c0.064-0.032,0.201-0.102,0.408-0.21c0.209-0.108,0.369-0.19,0.48-0.246c0.184-0.104,0.275-0.231,0.275-0.384V4.539
			c0-0.088-0.031-0.162-0.096-0.222c-0.064-0.061-0.141-0.091-0.229-0.091h-1.164c-0.088,0-0.164,0.03-0.227,0.091
			c-0.064,0.06-0.096,0.134-0.096,0.222v0.696H14.06V4.226c0-0.352,0.121-0.649,0.365-0.894s0.539-0.366,0.883-0.366h2.053
			c0.352,0,0.65,0.122,0.898,0.366s0.373,0.542,0.373,0.894v1.86c0,0.2-0.041,0.368-0.121,0.504c-0.08,0.137-0.16,0.232-0.24,0.288
			c-0.078,0.056-0.215,0.141-0.406,0.252c-0.064,0.04-0.16,0.095-0.289,0.162c-0.127,0.068-0.24,0.13-0.336,0.186
			c-0.096,0.057-0.172,0.101-0.229,0.133c-0.184,0.111-0.275,0.235-0.275,0.372V8.439z M16.868,10.958h-1.561V9.315h1.561V10.958z"
			/>
	</g>
	<g>
		<linearGradient id="SVGID_3_" gradientUnits="userSpaceOnUse" x1="18.7666" y1="8.8369" x2="13.0166" y2="3.5039">
			<stop  offset="0" style="stop-color:#565759"/>
			<stop  offset="0.5" style="stop-color:#666669"/>
			<stop  offset="1" style="stop-color:#77787B"/>
		</linearGradient>
		<path fill="url(#SVGID_3_)" d="M16.423,8.001h-1.367V7.197c0-0.288,0.047-0.504,0.143-0.647c0.098-0.145,0.289-0.292,0.576-0.444
			c0.064-0.032,0.201-0.102,0.408-0.21c0.209-0.108,0.369-0.19,0.48-0.246c0.184-0.104,0.275-0.231,0.275-0.384V4.101
			c0-0.088-0.031-0.162-0.096-0.222c-0.064-0.061-0.141-0.091-0.229-0.091H15.45c-0.088,0-0.164,0.03-0.227,0.091
			c-0.064,0.06-0.096,0.134-0.096,0.222v0.696h-1.381V3.789c0-0.352,0.121-0.649,0.365-0.894s0.539-0.366,0.883-0.366h2.053
			c0.352,0,0.65,0.122,0.898,0.366s0.373,0.542,0.373,0.894v1.86c0,0.2-0.041,0.368-0.121,0.504c-0.08,0.137-0.16,0.232-0.24,0.288
			c-0.078,0.056-0.215,0.141-0.406,0.252c-0.064,0.04-0.16,0.095-0.289,0.162c-0.127,0.068-0.24,0.13-0.336,0.186
			c-0.096,0.057-0.172,0.101-0.229,0.133c-0.184,0.111-0.275,0.235-0.275,0.372V8.001z M16.556,10.521h-1.561V8.877h1.561V10.521z"
			/>
	</g>
</g>
</svg>
