<?xml version="1.0" encoding="utf-8"?>
<!-- Generator: Adobe Illustrator 16.0.0, SVG Export Plug-In . SVG Version: 6.00 Build 0)  -->
<!DOCTYPE svg PUBLIC "-//W3C//DTD SVG 1.1//EN" "http://www.w3.org/Graphics/SVG/1.1/DTD/svg11.dtd">
<svg version="1.1" id="Layer_1" xmlns="http://www.w3.org/2000/svg" xmlns:xlink="http://www.w3.org/1999/xlink" x="0px" y="0px"
	 width="32px" height="13px" viewBox="0 0 32 13" enable-background="new 0 0 32 13" xml:space="preserve">
<g>
	<linearGradient id="SVGID_1_" gradientUnits="userSpaceOnUse" x1="2.4365" y1="-0.043" x2="34.4364" y2="15.04">
		<stop  offset="0" style="stop-color:#414042"/>
		<stop  offset="1" style="stop-color:#29292A"/>
	</linearGradient>
	<path fill="url(#SVGID_1_)" d="M30.474,0.281h-3.842h-1.055h-1.574h-3.68h-0.68h-8.289H5.017H2.491H1.415
		c-0.118,0-0.229,0.028-0.333,0.067C1.059,0.357,1.036,0.365,1.014,0.376C0.915,0.422,0.825,0.48,0.749,0.555
		c-0.012,0.012-0.02,0.024-0.03,0.036C0.682,0.63,0.644,0.668,0.614,0.713C0.593,0.746,0.581,0.785,0.563,0.82
		C0.55,0.849,0.535,0.875,0.524,0.905c-0.04,0.106-0.068,0.218-0.068,0.339v0.213v0.127v2.094v1.127v1.307v5.338
		c0,0.125,0.027,0.24,0.07,0.35c0.015,0.037,0.039,0.068,0.058,0.104c0.027,0.05,0.048,0.104,0.083,0.148
		c0.01,0.013,0.026,0.018,0.037,0.029c0.062,0.07,0.136,0.123,0.215,0.173c0.033,0.021,0.061,0.049,0.097,0.065
		c0.122,0.057,0.256,0.094,0.399,0.094h1.297h3.969h2.136l0.075,0.053c-0.01-0.019-0.021-0.034-0.029-0.053h5.553h4.799h1.58h0.305
		h3.223h0.787h0.979h2.426h0.461h1.5c0.053,0,0.105-0.006,0.156-0.018c0.042-0.008,0.079-0.034,0.12-0.049
		c0.061-0.02,0.117-0.038,0.174-0.069c0.065-0.035,0.121-0.08,0.18-0.128c0.047-0.039,0.093-0.072,0.135-0.118
		c0.013-0.014,0.031-0.023,0.044-0.038c0.043-0.052,0.069-0.112,0.103-0.169c0.024-0.04,0.054-0.076,0.072-0.118
		c0.053-0.119,0.087-0.242,0.087-0.367V9.729V8.857V8.324V4.387V2.875V2.502V1.133C31.544,0.602,31.003,0.281,30.474,0.281z"/>
	<linearGradient id="SVGID_2_" gradientUnits="userSpaceOnUse" x1="27.7578" y1="13.084" x2="6.7578" y2="1.334">
		<stop  offset="0" style="stop-color:#565759"/>
		<stop  offset="0.5" style="stop-color:#666669"/>
		<stop  offset="1" style="stop-color:#77787B"/>
	</linearGradient>
	<path fill="url(#SVGID_2_)" d="M30.631,0.16H1.26c-0.664,0-1.203,0.543-1.203,1.207v10.268c0,0.666,0.539,1.205,1.203,1.205h29.371
		c0.662,0,1.313-0.652,1.313-1.318V1.256C31.943,0.57,31.275,0.16,30.631,0.16z M30.631,12.246H1.26
		c-0.336,0-0.607-0.275-0.607-0.611V1.367c0-0.336,0.271-0.609,0.607-0.609h29.371c0.352,0,0.717,0.186,0.717,0.498v10.266
		C31.348,11.859,30.965,12.246,30.631,12.246z"/>
	<g>
		<path d="M16.673,8.211h-1.367V7.406c0-0.288,0.047-0.504,0.143-0.647c0.098-0.145,0.289-0.292,0.576-0.444
			c0.064-0.032,0.201-0.102,0.408-0.21c0.209-0.108,0.369-0.19,0.48-0.246c0.184-0.104,0.275-0.231,0.275-0.384V4.311
			c0-0.088-0.031-0.162-0.096-0.222c-0.064-0.061-0.141-0.091-0.229-0.091H15.7c-0.088,0-0.164,0.03-0.227,0.091
			c-0.064,0.06-0.096,0.134-0.096,0.222v0.696h-1.381V3.998c0-0.352,0.121-0.649,0.365-0.894s0.539-0.366,0.883-0.366h2.053
			c0.352,0,0.65,0.122,0.898,0.366s0.373,0.542,0.373,0.894v1.86c0,0.2-0.041,0.368-0.121,0.504c-0.08,0.137-0.16,0.232-0.24,0.288
			c-0.078,0.056-0.215,0.141-0.406,0.252c-0.064,0.04-0.16,0.095-0.289,0.162c-0.127,0.068-0.24,0.13-0.336,0.186
			c-0.096,0.057-0.172,0.101-0.229,0.133c-0.184,0.111-0.275,0.235-0.275,0.372V8.211z M16.806,10.73h-1.561V9.087h1.561V10.73z"/>
	</g>
	<g>
		<linearGradient id="SVGID_3_" gradientUnits="userSpaceOnUse" x1="18.7041" y1="8.6094" x2="12.9541" y2="3.2764">
			<stop  offset="0" style="stop-color:#565759"/>
			<stop  offset="0.5" style="stop-color:#666669"/>
			<stop  offset="1" style="stop-color:#77787B"/>
		</linearGradient>
		<path fill="url(#SVGID_3_)" d="M16.36,7.773h-1.367V6.969c0-0.288,0.047-0.504,0.143-0.647c0.098-0.145,0.289-0.292,0.576-0.444
			c0.064-0.032,0.201-0.102,0.408-0.21c0.209-0.108,0.369-0.19,0.48-0.246c0.184-0.104,0.275-0.231,0.275-0.384V3.873
			c0-0.088-0.031-0.162-0.096-0.222c-0.064-0.061-0.141-0.091-0.229-0.091h-1.164c-0.088,0-0.164,0.03-0.227,0.091
			c-0.064,0.06-0.096,0.134-0.096,0.222v0.696h-1.381V3.561c0-0.352,0.121-0.649,0.365-0.894s0.539-0.366,0.883-0.366h2.053
			c0.352,0,0.65,0.122,0.898,0.366s0.373,0.542,0.373,0.894v1.86c0,0.2-0.041,0.368-0.121,0.504c-0.08,0.137-0.16,0.232-0.24,0.288
			c-0.078,0.056-0.215,0.141-0.406,0.252c-0.064,0.04-0.16,0.095-0.289,0.162c-0.127,0.068-0.24,0.13-0.336,0.186
			c-0.096,0.057-0.172,0.101-0.229,0.133c-0.184,0.111-0.275,0.235-0.275,0.372V7.773z M16.493,10.293h-1.561V8.649h1.561V10.293z"
			/>
	</g>
</g>
</svg>
