<?xml version="1.0" encoding="utf-8"?>
<!-- Generator: Adobe Illustrator 16.0.0, SVG Export Plug-In . SVG Version: 6.00 Build 0)  -->
<!DOCTYPE svg PUBLIC "-//W3C//DTD SVG 1.1//EN" "http://www.w3.org/Graphics/SVG/1.1/DTD/svg11.dtd">
<svg version="1.1" id="Layer_1" xmlns="http://www.w3.org/2000/svg" xmlns:xlink="http://www.w3.org/1999/xlink" x="0px" y="0px"
	 width="32px" height="13px" viewBox="0 0 32 13" enable-background="new 0 0 32 13" xml:space="preserve">
<g>
	<linearGradient id="SVGID_1_" gradientUnits="userSpaceOnUse" x1="-1.2188" y1="-0.376" x2="33.2822" y2="7.843">
		<stop  offset="0" style="stop-color:#000000"/>
		<stop  offset="0.2366" style="stop-color:#4A4B4C"/>
		<stop  offset="0.4194" style="stop-color:#000000"/>
		<stop  offset="0.6452" style="stop-color:#383839"/>
		<stop  offset="0.7742" style="stop-color:#4A4B4C"/>
		<stop  offset="1" style="stop-color:#000000"/>
	</linearGradient>
	<polygon fill="url(#SVGID_1_)" points="0.291,2.732 1.303,4.961 30.695,4.961 31.709,2.732 	"/>
	<linearGradient id="SVGID_2_" gradientUnits="userSpaceOnUse" x1="-1.8164" y1="2.1387" x2="32.6837" y2="10.3574">
		<stop  offset="0" style="stop-color:#000000"/>
		<stop  offset="0.2366" style="stop-color:#4A4B4C"/>
		<stop  offset="0.4194" style="stop-color:#000000"/>
		<stop  offset="0.6452" style="stop-color:#383839"/>
		<stop  offset="0.7742" style="stop-color:#4A4B4C"/>
		<stop  offset="1" style="stop-color:#000000"/>
	</linearGradient>
	<polygon fill="url(#SVGID_2_)" points="3.432,7.617 28.57,7.617 29.582,5.389 2.418,5.389 	"/>
	<linearGradient id="SVGID_3_" gradientUnits="userSpaceOnUse" x1="-2.4141" y1="4.6455" x2="32.086" y2="12.8643">
		<stop  offset="0" style="stop-color:#000000"/>
		<stop  offset="0.2366" style="stop-color:#4A4B4C"/>
		<stop  offset="0.4194" style="stop-color:#000000"/>
		<stop  offset="0.6452" style="stop-color:#383839"/>
		<stop  offset="0.7742" style="stop-color:#4A4B4C"/>
		<stop  offset="1" style="stop-color:#000000"/>
	</linearGradient>
	<polygon fill="url(#SVGID_3_)" points="4.522,8.041 4.521,8.041 4.531,8.061 5.535,10.268 26.467,10.268 27.479,8.039 4.521,8.039 
			"/>
</g>
<g>
	<rect x="16.258" y="4.556" width="0.835" height="0.356"/>
	<path d="M16.627,3.952c0.93,0,1.771,0.369,2.4,0.96h1.202c-0.804-1.128-2.115-1.871-3.603-1.871s-2.799,0.743-3.603,1.871h1.203
		C14.857,4.321,15.697,3.952,16.627,3.952z"/>
	<path d="M20.146,7.47c0,0.034-0.009,0.065-0.01,0.099h0.91c0.001-0.033,0.01-0.064,0.01-0.099c0-0.775-0.218-1.495-0.57-2.13
		h-1.077C19.863,5.933,20.146,6.666,20.146,7.47z"/>
	<path d="M13.11,7.47c0-0.804,0.281-1.537,0.737-2.13h-1.079c-0.352,0.635-0.57,1.354-0.57,2.13c0,0.034,0.009,0.065,0.01,0.099
		h0.912C13.119,7.535,13.11,7.504,13.11,7.47z"/>
	<polygon points="17.093,5.34 16.258,5.34 16.258,7.432 16.141,7.568 17.093,7.568 	"/>
	<path d="M13.163,7.99h-0.912c0.1,0.839,0.429,1.601,0.932,2.229h1.277C13.774,9.677,13.299,8.893,13.163,7.99z"/>
	<polygon points="15.483,9.622 16.882,7.99 15.78,7.99 14.85,9.079 	"/>
	<path d="M18.795,10.219h1.276c0.503-0.628,0.832-1.39,0.932-2.229h-0.91C19.957,8.893,19.481,9.677,18.795,10.219z"/>
</g>
<linearGradient id="SVGID_4_" gradientUnits="userSpaceOnUse" x1="21.1494" y1="9.917" x2="11.8789" y2="3.8545">
	<stop  offset="0" style="stop-color:#565759"/>
	<stop  offset="0.5" style="stop-color:#666669"/>
	<stop  offset="1" style="stop-color:#77787B"/>
</linearGradient>
<path fill="url(#SVGID_4_)" d="M16.419,2.395c-2.441,0-4.429,1.987-4.429,4.429s1.987,4.429,4.429,4.429s4.429-1.987,4.429-4.429
	S18.86,2.395,16.419,2.395z M16.419,10.341c-1.939,0-3.517-1.578-3.517-3.518s1.577-3.518,3.517-3.518
	c1.94,0,3.519,1.578,3.519,3.518S18.359,10.341,16.419,10.341z M16.885,7.098l-1.609,1.878l-0.634-0.543l1.408-1.647V3.909h0.835
	V7.098z"/>
</svg>
